<svg xmlns="http://www.w3.org/2000/svg" viewBox="0 0 1600 900" fill="none">
  <defs>
    <linearGradient id="bg" x1="170" y1="120" x2="1410" y2="780" gradientUnits="userSpaceOnUse">
      <stop stop-color="#F8F2FF"/>
      <stop offset="1" stop-color="#FFF9F0"/>
    </linearGradient>
    <linearGradient id="panel" x1="220" y1="140" x2="1270" y2="760" gradientUnits="userSpaceOnUse">
      <stop stop-color="#5423A5"/>
      <stop offset="1" stop-color="#29134E"/>
    </linearGradient>
  </defs>
  <rect width="1600" height="900" rx="48" fill="url(#bg)"/>
  <circle cx="1266" cy="188" r="128" fill="#EBDDFF"/>
  <circle cx="282" cy="706" r="172" fill="#F5E7C1"/>
  <rect x="190" y="128" width="1220" height="644" rx="44" fill="url(#panel)"/>
  <rect x="264" y="204" width="1072" height="492" rx="38" fill="#FFFFFF" fill-opacity="0.08"/>
  <circle cx="804" cy="456" r="186" stroke="#FFF9F0" stroke-width="20"/>
  <path d="M670 444c8-79 61-142 132-156 71-14 145 19 191 85" stroke="#D8BEFF" stroke-width="12" stroke-linecap="round"/>
  <path d="M624 545c29-47 77-80 131-92 74-17 152 6 207 63" stroke="#FFF9F0" stroke-width="12" stroke-linecap="round"/>
  <path d="M704 612c52-26 122-31 188-12 40 11 74 31 100 55" stroke="#C9A24B" stroke-width="12" stroke-linecap="round"/>
  <path d="M735 362c-29-76-11-135 26-178m39 164c-21-94 3-169 66-220m28 244c-8-93 29-166 95-217" stroke="#FFFFFF" stroke-opacity="0.72" stroke-width="8" stroke-linecap="round"/>
</svg>